#!OML:ASF H:\BabyWalks\Project 1\Capture day 1\Session 1\baby.ASF
:FULLY-SPECIFIED
:DEGREES
501
root -8.25475 18.483 0.967776 419.339 -67.8694 -423.888
lowerback 23.7709 1.80302 1.81182
upperback 7.07207 2.31531 0.899834
thorax -5.4104 0.902144 -0.679445
lowerneck -8.81645 5.12282 7.69458
upperneck 22.5523 6.28662 -4.2349
head 8.88431 3.01601 -2.0966
rclavicle -2.46493e-014 9.54166e-015
rhumerus -44.1324 -11.9806 -62.041
rradius 66.4336
rwrist 12.9634
rhand -29.9377 -22.7541
rfingers 7.12502
rthumb -3.25727 -52.7089
lclavicle -2.46493e-014 9.54166e-015
lhumerus -35.5405 -5.53436 73.7783
lradius 64.0756
lwrist 2.10187
lhand -1.58391 14.3432
lfingers 7.12502
lthumb 24.0724 42.8533
rfemur -40.4643 -54.9151 -1.36622
rtibia 134.129
rfoot -5.43154 21.7413
rtoes 2.47715
lfemur -5.13854 2.05263 -1.12643
ltibia 19.9096
lfoot -11.984 7.95585
ltoes 3.02179
502
root -8.26238 18.503 0.981533 419.57 -67.3927 -424.257
lowerback 23.9339 1.74094 1.98773
upperback 7.13675 2.27936 1.04247
thorax -5.42051 0.879622 -0.6183
lowerneck -8.79162 5.0285 7.67714
upperneck 22.4847 6.13314 -4.11878
head 8.84205 2.95488 -2.07164
rclavicle -3.18055e-014 2.54444e-014
rhumerus -44.1438 -11.9695 -61.5135
rradius 66.9621
rwrist 12.8462
rhand -30.2901 -23.0391
rfingers 7.12502
rthumb -3.59764 -52.9885
lclavicle -3.18055e-014 2.54444e-014
lhumerus -35.6315 -5.309 73.562
lradius 63.9008
lwrist 2.66698
lhand -1.92828 14.398
lfingers 7.12502
lthumb 23.7422 42.9514
rfemur -39.8462 -55.2424 -3.63968
rtibia 134.896
rfoot -5.7483 22.5423
rtoes 3.49439
lfemur -4.81904 1.72271 -0.675201
ltibia 19.444
lfoot -11.7283 8.23074
ltoes 3.12624
503
root -8.27042 18.5216 0.995054 419.833 -66.9452 -424.64
lowerback 24.0664 1.69843 2.13472
upperback 7.19522 2.26282 1.18773
thorax -5.42289 0.866926 -0.542309
lowerneck -8.74233 4.93268 7.6823
upperneck 22.3824 5.98223 -4.03125
head 8.78545 2.89451 -2.06016
rclavicle 3.02153e-014 3.81667e-014
rhumerus -44.153 -11.9869 -60.9489
rradius 67.4553
rwrist 12.7439
rhand -30.6325 -23.2947
rfingers 7.12502
rthumb -3.92828 -53.2382
lclavicle 3.02153e-014 3.81667e-014
lhumerus -35.7392 -5.11734 73.3736
lradius 63.7514
lwrist 3.3237
lhand -2.22741 14.4859
lfingers 7.12502
lthumb 23.4553 43.0762
rfemur -39.5193 -55.3691 -5.60491
rtibia 135.447
rfoot -6.36215 22.4334
rtoes 4.80333
lfemur -4.52448 1.3714 -0.25396
ltibia 19.0032
lfoot -11.4685 8.55962
ltoes 3.25195
504
root -8.2783 18.5392 1.00924 420.125 -66.5312 -425.029
lowerback 24.1696 1.6724 2.25834
upperback 7.25045 2.26228 1.33389
thorax -5.41473 0.862363 -0.455658
lowerneck -8.68474 4.8321 7.70719
upperneck 22.25 5.83075 -3.97943
head 8.71891 2.83233 -2.06404
rclavicle -4.05521e-014 -9.54166e-015
rhumerus -44.15 -12.0364 -60.3492
rradius 67.9159
rwrist 12.6389
rhand -30.9413 -23.5266
rfingers 7.12502
rthumb -4.22643 -53.4644
lclavicle -4.05521e-014 -9.54166e-015
lhumerus -35.8515 -4.94783 73.2165
lradius 63.6213
lwrist 4.04781
lhand -2.47423 14.6079
lfingers 7.12502
lthumb 23.2185 43.2283
rfemur -39.5433 -55.2958 -7.18413
rtibia 135.784
rfoot -7.22772 21.2772
rtoes 6.34534
lfemur -4.25294 0.984782 0.126795
ltibia 18.5777
lfoot -11.1963 8.9533
ltoes 3.3997
505
root -8.28595 18.556 1.0246 420.451 -66.1545 -425.432
lowerback 24.2461 1.6602 2.36041
upperback 7.30496 2.27409 1.47812
thorax -5.39454 0.864105 -0.361566
lowerneck -8.62774 4.73128 7.74513
upperneck 22.0945 5.68428 -3.9577
head 8.6463 2.77077 -2.07944
rclavicle 3.97569e-015 -4.13472e-014
rhumerus -44.1262 -12.1094 -59.728
rradius 68.3409
rwrist 12.5217
rhand -31.2245 -23.7433
rfingers 7.12502
rthumb -4.49994 -53.6755
lclavicle 3.97569e-015 -4.13472e-014
lhumerus -35.9677 -4.79383 73.0861
lradius 63.5119
lwrist 4.81007
lhand -2.65549 14.7792
lfingers 7.12502
lthumb 23.0446 43.4214
rfemur -39.9276 -55.0119 -8.34193
rtibia 135.903
rfoot -8.22735 19.0676
rtoes 8.14174
lfemur -3.99466 0.564667 0.463533
ltibia 18.1589
lfoot -10.9079 9.40873
ltoes 3.58739
506
root -8.29308 18.5718 1.04185 420.803 -65.8252 -425.84
lowerback 24.2966 1.66007 2.43907
upperback 7.36129 2.29473 1.61431
thorax -5.35987 0.870469 -0.264651
lowerneck -8.58083 4.6328 7.79433
upperneck 21.9244 5.54532 -3.96316
head 8.57227 2.71101 -2.10461
rclavicle -4.92986e-014 -9.54166e-015
rhumerus -44.0752 -12.2064 -59.0961
rradius 68.7302
rwrist 12.3777
rhand -31.4748 -23.9611
rfingers 7.12502
rthumb -4.74164 -53.888
lclavicle -4.92986e-014 -9.54166e-015
lhumerus -36.0802 -4.65397 72.9797
lradius 63.4164
lwrist 5.57853
lhand -2.78703 14.9861
lfingers 7.12502
lthumb 22.9183 43.644
rfemur -40.6499 -54.497 -9.10285
rtibia 135.794
rfoot -9.20005 15.9764
rtoes 10.3327
lfemur -3.74154 0.102453 0.740963
ltibia 17.7379
lfoot -10.5934 9.93139
ltoes 3.80195
507
root -8.29967 18.5869 1.06094 421.199 -65.5376 -426.281
lowerback 24.3267 1.67041 2.4995
upperback 7.42319 2.323 1.74607
thorax -5.3094 0.88066 -0.163737
lowerneck -8.54049 4.53955 7.85788
upperneck 21.7391 5.41907 -4.00358
head 8.49657 2.655 -2.14219
rclavicle 2.70347e-014 -2.54444e-014
rhumerus -43.9834 -12.3166 -58.4634
rradius 69.0802
rwrist 12.1922
rhand -31.6918 -24.187
rfingers 7.12502
rthumb -4.95114 -54.1092
lclavicle 2.70347e-014 -2.54444e-014
lhumerus -36.1823 -4.51111 72.8948
lradius 63.3193
lwrist 6.31335
lhand -2.87067 15.2081
lfingers 7.12502
lthumb 22.8381 43.876
rfemur -41.66 -53.7078 -9.48774
rtibia 135.436
rfoot -10.0334 12.3234
rtoes 12.8877
lfemur -3.48289 -0.378454 0.974193
ltibia 17.3125
lfoot -10.2664 10.4997
ltoes 4.09761
508
root -8.30555 18.6011 1.0824 421.622 -65.3017 -426.744
lowerback 24.3449 1.69253 2.54978
upperback 7.48907 2.36204 1.86265
thorax -5.24829 0.896225 -0.0761582
lowerneck -8.50358 4.44614 7.93687
upperneck 21.5474 5.29523 -4.06748
head 8.42058 2.59905 -2.18967
rclavicle -2.78299e-014 3.49861e-014
rhumerus -43.8748 -12.4579 -57.8374
rradius 69.3984
rwrist 11.9736
rhand -31.8695 -24.4373
rfingers 7.12502
rthumb -5.12271 -54.3554
lclavicle -2.78299e-014 3.49861e-014
lhumerus -36.2714 -4.38351 72.8289
lradius 63.2125
lwrist 6.98279
lhand -2.91483 15.4287
lfingers 7.12502
lthumb 22.7957 44.1018
rfemur -42.8585 -52.5989 -9.60169
rtibia 134.801
rfoot -10.7083 8.54282
rtoes 15.6935
lfemur -3.21162 -0.85693 1.1502
ltibia 16.8831
lfoot -9.92854 11.0896
ltoes 4.46289
509
root -8.31078 18.6144 1.10563 422.109 -65.1017 -427.277
lowerback 24.3626 1.72336 2.58951
upperback 7.56304 2.40818 1.97704
thorax -5.17837 0.914901 0.0132296
lowerneck -8.47604 4.36544 8.02179
upperneck 21.359 5.19208 -4.15301
head 8.34949 2.55102 -2.24286
rclavicle 2.14687e-014 3.81667e-014
rhumerus -43.7198 -12.5984 -57.2293
rradius 69.6736
rwrist 11.7208
rhand -32.0294 -24.7066
rfingers 7.12502
rthumb -5.27714 -54.6209
lclavicle 2.14687e-014 3.81667e-014
lhumerus -36.3526 -4.23425 72.7801
lradius 63.0905
lwrist 7.55524
lhand -2.93177 15.6207
lfingers 7.12502
lthumb 22.7794 44.2957
rfemur -44.1521 -51.119 -9.49871
rtibia 133.866
rfoot -11.2761 5.04962
rtoes 18.3931
lfemur -2.91462 -1.30897 1.3009
ltibia 16.4514
lfoot -9.58284 11.6824
ltoes 4.86875
510
root -8.31511 18.6267 1.13085 422.648 -64.938 -427.876
lowerback 24.39 1.76392 2.63047
upperback 7.63996 2.46573 2.08161
thorax -5.10951 0.938818 0.087981
lowerneck -8.45708 4.29513 8.10534
upperneck 21.1867 5.1017 -4.23404
head 8.28613 2.50901 -2.29272
rclavicle 3.97569e-015 4.13472e-014
rhumerus -43.5424 -12.7503 -56.6437
rradius 69.9097
rwrist 11.4453
rhand -32.1783 -25.0045
rfingers 7.12502
rthumb -5.42085 -54.9152
lclavicle 3.97569e-015 4.13472e-014
lhumerus -36.4244 -4.08717 72.7452
lradius 62.9395
lwrist 8.02757
lhand -2.93964 15.7843
lfingers 7.12502
lthumb 22.7719 44.4603
rfemur -45.4362 -49.2494 -9.28669
rtibia 132.61
rfoot -11.7569 2.18223
rtoes 20.6307
lfemur -2.58899 -1.71589 1.42422
ltibia 16.018
lfoot -9.2348 12.256
ltoes 5.29723
511
root -8.31839 18.6379 1.15778 423.24 -64.8124 -428.542
lowerback 24.438 1.81444 2.67306
upperback 7.71696 2.53542 2.1727
thorax -5.04998 0.968258 0.143406
lowerneck -8.43832 4.23225 8.19973
upperneck 21.0272 5.02064 -4.3206
head 8.22823 2.47148 -2.34519
rclavicle 2.70347e-014 5.725e-014
rhumerus -43.344 -12.909 -56.0862
rradius 70.1019
rwrist 11.1526
rhand -32.3268 -25.3252
rfingers 7.12502
rthumb -5.56425 -55.2321
lclavicle 2.70347e-014 5.725e-014
lhumerus -36.4891 -3.94541 72.7212
lradius 62.7586
lwrist 8.39462
lhand -2.95072 15.9149
lfingers 7.12502
lthumb 22.7613 44.5922
rfemur -46.6315 -47.0035 -9.04959
rtibia 131.025
rfoot -12.1398 0.128727
rtoes 22.191
lfemur -2.23434 -2.06614 1.51967
ltibia 15.5872
lfoot -8.8891 12.7987
ltoes 5.72522
512
root -8.32059 18.6481 1.18605 423.885 -64.7156 -429.282
lowerback 24.5126 1.87198 2.7142
upperback 7.79312 2.61343 2.25739
thorax -5.00428 1.00116 0.189828
lowerneck -8.40722 4.18033 8.30034
upperneck 20.8782 4.95512 -4.41245
head 8.17295 2.4411 -2.39902
rclavicle -6.99722e-014 8.26944e-014
rhumerus -43.1253 -13.0594 -55.5605
rradius 70.2556
rwrist 10.8605
rhand -32.4715 -25.6647
rfingers 7.12502
rthumb -5.70397 -55.5679
lclavicle -6.99722e-014 8.26944e-014
lhumerus -36.5561 -3.7928 72.7081
lradius 62.5456
lwrist 8.6578
lhand -2.97415 15.9989
lfingers 7.12502
lthumb 22.7388 44.679
rfemur -47.6737 -44.4251 -8.8378
rtibia 129.117
rfoot -12.4045 -1.07616
rtoes 22.9688
lfemur -1.84822 -2.34841 1.59958
ltibia 15.1603
lfoot -8.54899 13.2976
ltoes 6.12581
513
root -8.32179 18.6571 1.21531 424.576 -64.6434 -430.092
lowerback 24.618 1.94025 2.76684
upperback 7.86431 2.70776 2.32812
thorax -4.97781 1.0416 0.209245
lowerneck -8.36547 4.13391 8.40999
upperneck 20.746 4.89356 -4.4928
head 8.12168 2.41416 -2.45027
rclavicle -8.74653e-015 6.04305e-014
rhumerus -42.9102 -13.2211 -55.0669
rradius 70.3707
rwrist 10.5892
rhand -32.629 -26.009
rfingers 7.12502
rthumb -5.85598 -55.9081
lclavicle -8.74653e-015 6.04305e-014
lhumerus -36.6207 -3.66649 72.7013
lradius 62.2997
lwrist 8.8345
lhand -3.02735 16.0441
lfingers 7.12502
lthumb 22.6877 44.7304
rfemur -48.5396 -41.5991 -8.67198
rtibia 126.908
rfoot -12.5546 -1.54409
rtoes 22.9881
lfemur -1.43251 -2.5651 1.66719
ltibia 14.7387
lfoot -8.2172 13.7484
ltoes 6.48953
514
root -8.32152 18.6646 1.24589 425.286 -64.6057 -430.928
lowerback 24.7474 2.01045 2.81002
upperback 7.93097 2.80223 2.38463
thorax -4.96779 1.08181 0.217826
lowerneck -8.3211 4.09755 8.52711
upperneck 20.6298 4.84477 -4.57464
head 8.07647 2.39345 -2.50202
rclavicle 1.74931e-014 3.49861e-014
rhumerus -42.6793 -13.3769 -54.6127
rradius 70.452
rwrist 10.3397
rhand -32.788 -26.3404
rfingers 7.12502
rthumb -6.00954 -56.2352
lclavicle 1.74931e-014 3.49861e-014
lhumerus -36.6869 -3.53674 72.7015
lradius 62.0241
lwrist 8.9395
lhand -3.12231 16.05
lfingers 7.12502
lthumb 22.5966 44.7474
rfemur -49.2321 -38.6455 -8.58472
rtibia 124.43
rfoot -12.6227 -1.46317
rtoes 22.4617
lfemur -1.00771 -2.72868 1.70023
ltibia 14.3298
lfoot -7.89855 14.1573
ltoes 6.81764
515
root -8.32019 18.6708 1.27727 426.015 -64.5996 -431.787
lowerback 24.8919 2.0853 2.84113
upperback 7.9957 2.89947 2.43003
thorax -4.96735 1.1231 0.219885
lowerneck -8.27923 4.06638 8.64376
upperneck 20.5256 4.80254 -4.65479
head 8.03611 2.3758 -2.55242
rclavicle -3.18055e-015 1.27222e-014
rhumerus -42.4358 -13.5357 -54.194
rradius 70.5053
rwrist 10.1226
rhand -32.9339 -26.6467
rfingers 7.12502
rthumb -6.15042 -56.5375
lclavicle -3.18055e-015 1.27222e-014
lhumerus -36.7484 -3.405 72.7121
lradius 61.7201
lwrist 8.98867
lhand -3.24542 16.0322
lfingers 7.12502
lthumb 22.4784 44.7439
rfemur -49.7724 -35.6688 -8.5545
rtibia 121.724
rfoot -12.6502 -1.10359
rtoes 21.6372
lfemur -0.587278 -2.84067 1.7033
ltibia 13.9496
lfoot -7.60281 14.5236
ltoes 7.12048
